<svg width="20" height="21" viewBox="0 0 20 21" fill="none" xmlns="http://www.w3.org/2000/svg">
<path d="M10.6548 4.0716C10.5441 4.20302 10.4334 4.33627 10.2967 4.49508L9.92074 4.93498L9.53011 4.50968C9.41455 4.38373 9.29736 4.25413 9.18343 4.12819C7.97575 2.7957 7.06592 1.79178 5.19255 1.7644C5.1193 1.76258 5.04118 1.7644 4.9598 1.76805C3.91162 1.81003 2.94482 2.24263 2.23844 2.98189C1.54183 3.71201 1.09749 4.74697 1.08284 6.00644C1.08122 6.08493 1.08284 6.16707 1.0861 6.25651C1.1984 9.77389 4.19971 12.8423 6.68831 15.3849C7.16846 15.8759 7.62907 16.3469 8.07015 16.8233L9.90283 18.8037L12.2059 16.241C12.577 15.8285 12.9969 15.3776 13.4461 14.8957C14.2095 14.0743 15.0591 13.1635 15.8501 12.2454C16.4181 11.5864 16.9569 10.9238 17.4142 10.2868C17.8634 9.66255 18.2313 9.06932 18.4673 8.53998C18.8547 7.67113 18.9767 6.80228 18.8937 5.99001C18.8123 5.1887 18.5308 4.44032 18.1092 3.80145C17.6812 3.15347 17.1115 2.61682 16.4588 2.24994C15.7069 1.83011 14.8459 1.63115 13.9653 1.74432C12.4468 1.94146 11.6379 2.9034 10.6548 4.0716ZM9.89144 3.21005C11.0145 1.87575 11.9471 0.78238 13.8416 0.539613C14.9354 0.399063 16.0063 0.643656 16.939 1.16935C17.7446 1.62203 18.4478 2.28279 18.9751 3.08045C19.5073 3.88724 19.8638 4.83458 19.9679 5.85311C20.0737 6.88624 19.9207 7.98691 19.4308 9.0821C19.1541 9.70088 18.744 10.3653 18.2541 11.0461C17.7739 11.7142 17.214 12.4042 16.6265 13.085C15.8208 14.0214 14.9647 14.9414 14.1932 15.7701C13.7423 16.2538 13.3208 16.7064 12.966 17.1007L10.2869 20.0815L9.91097 20.4995L9.53011 20.0888L7.31657 17.6976C6.9113 17.2613 6.44255 16.7813 5.95589 16.283C3.31755 13.5833 0.132324 10.3288 0.00374349 6.29849C0.000488281 6.19992 0.000488281 6.0977 0.000488281 5.99184C0.0200195 4.3746 0.596191 3.03847 1.49951 2.09296C2.39469 1.15657 3.61051 0.608975 4.91911 0.556041C5.00863 0.55239 5.10303 0.550565 5.20231 0.55239C7.48747 0.587071 8.53239 1.70964 9.89144 3.21005Z" fill="black" />
</svg>