<svg width="20" height="21" viewBox="0 0 20 21" fill="none" xmlns="http://www.w3.org/2000/svg">
<g clip-path="url(#clip0_223_401)">
<path d="M0.634662 1.96977C0.292921 1.96977 0 1.63488 0 1.22558C0 0.834884 0.292921 0.5 0.634662 0.5H2.29455C2.31082 0.5 2.34337 0.5 2.35964 0.5C2.94548 0.518605 3.46623 0.648837 3.90561 0.965116C4.39382 1.3186 4.75183 1.85814 4.94711 2.65814C4.94711 2.67674 4.94711 2.69535 4.96338 2.71395L5.12612 3.45814H19.3653C19.7234 3.45814 20 3.79302 20 4.18372C20 4.25814 19.9837 4.33256 19.9675 4.40698L18.3076 12.0535C18.2425 12.3884 17.9821 12.6116 17.6892 12.6116H7.27421C7.50203 13.5791 7.72986 14.1 8.03906 14.3419C8.41334 14.6209 9.06428 14.6395 10.1546 14.6209H10.1709H17.5264C17.8845 14.6209 18.1611 14.9558 18.1611 15.3465C18.1611 15.7558 17.8682 16.0721 17.5264 16.0721H10.1709C8.82018 16.0907 7.99024 16.0535 7.32303 15.5512C6.63954 15.0302 6.28153 14.1372 5.92352 12.5186L3.74288 3.08605C3.74288 3.06744 3.74288 3.06744 3.72661 3.04884C3.62897 2.63953 3.46623 2.36047 3.2384 2.21163C3.01058 2.04419 2.70138 1.96977 2.34337 1.96977C2.3271 1.96977 2.31082 1.96977 2.29455 1.96977H0.634662ZM15.6225 16.9279C16.4849 16.9279 17.1847 17.7279 17.1847 18.714C17.1847 19.7 16.4849 20.5 15.6225 20.5C14.76 20.5 14.0602 19.7 14.0602 18.714C14.0602 17.7279 14.76 16.9279 15.6225 16.9279ZM8.77136 16.9279C9.63385 16.9279 10.3336 17.7279 10.3336 18.714C10.3336 19.7 9.63385 20.5 8.77136 20.5C7.90887 20.5 7.20911 19.7 7.20911 18.714C7.20911 17.7279 7.90887 16.9279 8.77136 16.9279ZM5.48413 4.9093L6.93247 11.1419H17.201L18.5517 4.9093H5.48413Z" fill="black"/>
</g>
<defs>
<clipPath id="clip0_223_401">
<rect width="20" height="20" fill="white" transform="translate(0 0.5)"/>
</clipPath>
</defs>
</svg>
