<svg width="20" height="21" viewBox="0 0 20 21" fill="none" xmlns="http://www.w3.org/2000/svg">
<g clip-path="url(#clip0_223_395)">
<path d="M10.6543 4.07215C10.5436 4.20357 10.4329 4.33682 10.2962 4.49562L9.92025 4.93553L9.52962 4.51023C9.41406 4.38428 9.29687 4.25468 9.18294 4.12874C7.97526 2.79625 7.06543 1.79233 5.19206 1.76495C5.11881 1.76312 5.04069 1.76495 4.95931 1.7686C3.91113 1.81058 2.94434 2.24318 2.23796 2.98244C1.54134 3.71256 1.09701 4.74752 1.08236 6.00699C1.08073 6.08548 1.08236 6.16762 1.08561 6.25706C1.19792 9.77444 4.19922 12.8428 6.68783 15.3855C7.16797 15.8765 7.62858 16.3474 8.06966 16.8238L9.90234 18.8043L12.2054 16.2415C12.5765 15.829 12.9964 15.3782 13.4456 14.8963C14.209 14.0749 15.0586 13.1641 15.8496 12.2459C16.4176 11.587 16.9564 10.9244 17.4137 10.2874C17.863 9.6631 18.2308 9.06987 18.4668 8.54053C18.8542 7.67168 18.9762 6.80283 18.8932 5.99056C18.8118 5.18925 18.5303 4.44087 18.1087 3.802C17.6807 3.15402 17.111 2.61737 16.4583 2.25048C15.7064 1.83066 14.8454 1.6317 13.9648 1.74487C12.4463 1.94201 11.6374 2.90395 10.6543 4.07215ZM9.89095 3.2106C11.014 1.87629 11.9466 0.782929 13.8411 0.540162C14.9349 0.399613 16.0059 0.644205 16.9385 1.1699C17.7441 1.62258 18.4473 2.28334 18.9746 3.081C19.5068 3.88779 19.8633 4.83513 19.9674 5.85366C20.0732 6.88679 19.9202 7.98746 19.4303 9.08265C19.1536 9.70143 18.7435 10.3658 18.2536 11.0467C17.7734 11.7148 17.2135 12.4047 16.626 13.0856C15.8203 14.022 14.9642 14.9419 14.1927 15.7706C13.7419 16.2543 13.3203 16.707 12.9655 17.1013L10.2865 20.082L9.91048 20.5L9.52962 20.0893L7.31608 17.6981C6.91081 17.2619 6.44206 16.7818 5.9554 16.2835C3.31706 13.5839 0.131836 10.3293 0.00325521 6.29904C0 6.20047 0 6.09825 0 5.99238C0.0195312 4.37515 0.595703 3.03902 1.49902 2.09351C2.39421 1.15712 3.61003 0.609524 4.91862 0.55659C5.00814 0.552939 5.10254 0.551114 5.20182 0.552939C7.48698 0.58762 8.5319 1.71019 9.89095 3.2106Z" fill="black"/>
</g>
<defs>
<clipPath id="clip0_223_395">
<rect width="20" height="20" fill="white" transform="translate(0 0.5)"/>
</clipPath>
</defs>
</svg>
