<svg width="89" height="40" viewBox="0 0 89 40" fill="none" xmlns="http://www.w3.org/2000/svg">
<path fill-rule="evenodd" clip-rule="evenodd" d="M18.407 18.0385L15.9601 13.1451C15.9185 13.0617 16.0033 12.9717 16.0889 13.0084L18.457 14.0233C18.4822 14.034 18.5106 14.034 18.5358 14.0233L20.9039 13.0084C20.9895 12.9717 21.0743 13.0617 21.0327 13.1451L18.5858 18.0385C18.549 18.1122 18.4438 18.1122 18.407 18.0385ZM20.0582 18.73L21.7884 13.5397C21.8179 13.4514 21.9415 13.4477 21.9761 13.5342L22.933 15.9262C22.9431 15.9516 22.9633 15.9717 22.9887 15.9819L25.3808 16.9387C25.4673 16.9733 25.4636 17.0969 25.3753 17.1264L20.1847 18.8564C20.1066 18.8825 20.0322 18.8081 20.0582 18.73ZM25.8474 17.9597L20.9537 20.4064C20.88 20.4433 20.88 20.5484 20.9537 20.5853L25.8474 23.032C25.9307 23.0737 26.0207 22.9888 25.984 22.9032L24.9692 20.5352C24.9584 20.5101 24.9584 20.4816 24.9692 20.4565L25.984 18.0886C26.0207 18.0029 25.9307 17.9181 25.8474 17.9597ZM20.1866 22.0591L25.3771 23.7892C25.4655 23.8186 25.4691 23.9423 25.3826 23.9769L22.9905 24.9337C22.9651 24.9438 22.945 24.964 22.9348 24.9894L21.978 27.3813C21.9434 27.4678 21.8197 27.4642 21.7903 27.3758L20.0601 22.1856C20.034 22.1074 20.1084 22.033 20.1866 22.0591ZM21.0319 27.8466L18.5851 22.9532C18.5482 22.8795 18.4431 22.8795 18.4062 22.9532L15.9594 27.8466C15.9177 27.9299 16.0026 28.0199 16.0882 27.9832L18.4563 26.9684C18.4814 26.9576 18.5099 26.9576 18.5351 26.9684L20.9031 27.9832C20.9887 28.0199 21.0736 27.9299 21.0319 27.8466ZM16.8551 22.1855L15.125 27.3758C15.0955 27.4641 14.9718 27.4678 14.9372 27.3813L13.9804 24.9893C13.9702 24.9639 13.9501 24.9438 13.9247 24.9336L11.5326 23.9768C11.4461 23.9423 11.4497 23.8186 11.5381 23.7891L16.7286 22.0591C16.8068 22.033 16.8812 22.1074 16.8551 22.1855ZM11.1451 23.0321L16.0387 20.5854C16.1125 20.5486 16.1125 20.4434 16.0387 20.4065L11.1451 17.9598C11.0617 17.9182 10.9717 18.003 11.0084 18.0887L12.0233 20.4566C12.0341 20.4817 12.0341 20.5102 12.0233 20.5354L11.0084 22.9033C10.9717 22.9889 11.0617 23.0738 11.1451 23.0321ZM16.7297 18.8564L11.5392 17.1263C11.4508 17.0969 11.4472 16.9732 11.5337 16.9386L13.9258 15.9818C13.9512 15.9717 13.9713 15.9515 13.9815 15.9261L14.9383 13.5342C14.9729 13.4477 15.0966 13.4513 15.126 13.5397L16.8562 18.7299C16.8823 18.8081 16.8079 18.8825 16.7297 18.8564ZM18.4958 22.0149C19.3348 22.0149 20.0149 21.3348 20.0149 20.4959C20.0149 19.657 19.3348 18.9769 18.4958 18.9769C17.6569 18.9769 16.9768 19.657 16.9768 20.4959C16.9768 21.3348 17.6569 22.0149 18.4958 22.0149Z" fill="#178ADB"/>
<path d="M35.2897 19.59C35.343 19.7167 35.3463 19.8567 35.2997 20.01C35.2597 20.1633 35.183 20.2633 35.0697 20.31C35.0097 20.3367 34.9297 20.36 34.8297 20.38C34.7297 20.3933 34.6197 20.4067 34.4997 20.42C34.3863 20.4333 34.273 20.4433 34.1597 20.45C34.0463 20.4567 33.9497 20.46 33.8697 20.46C33.8763 20.66 33.883 20.8667 33.8897 21.08C33.8963 21.2867 33.903 21.49 33.9097 21.69C33.9163 21.89 33.9197 22.0833 33.9197 22.27C33.9197 22.45 33.9163 22.6133 33.9097 22.76C33.9097 22.86 33.9097 22.9767 33.9097 23.11C33.9097 23.2367 33.8997 23.36 33.8797 23.48C33.8663 23.6 33.843 23.7067 33.8097 23.8C33.7763 23.8867 33.7263 23.9433 33.6597 23.97C33.453 24.0567 33.263 24.08 33.0897 24.04C32.923 24.0067 32.803 23.9367 32.7297 23.83C32.6763 23.7433 32.6363 23.6433 32.6097 23.53C32.583 23.41 32.563 23.29 32.5497 23.17C32.543 23.0433 32.5397 22.9233 32.5397 22.81C32.5463 22.69 32.5497 22.5867 32.5497 22.5C32.5563 22.22 32.5597 21.9033 32.5597 21.55C32.5663 21.19 32.5697 20.83 32.5697 20.47H32.4197C32.3397 20.47 32.2363 20.47 32.1097 20.47C31.9897 20.4633 31.8663 20.4533 31.7397 20.44C31.6197 20.42 31.5063 20.3967 31.3997 20.37C31.293 20.3367 31.2163 20.29 31.1697 20.23C31.0963 20.1433 31.0497 20.05 31.0297 19.95C31.0163 19.85 31.023 19.7567 31.0497 19.67C31.083 19.5767 31.133 19.4967 31.1997 19.43C31.2663 19.3567 31.343 19.31 31.4297 19.29C31.5497 19.2567 31.7197 19.24 31.9397 19.24C32.1597 19.2333 32.3663 19.2333 32.5597 19.24C32.553 19.1733 32.5497 19.11 32.5497 19.05C32.5497 18.9833 32.5463 18.92 32.5397 18.86C32.533 18.78 32.5297 18.68 32.5297 18.56C32.5297 18.4333 32.5363 18.31 32.5497 18.19C32.5697 18.0633 32.5997 17.9467 32.6397 17.84C32.6797 17.7267 32.7363 17.64 32.8097 17.58C32.9097 17.5 33.0097 17.4567 33.1097 17.45C33.2163 17.4367 33.313 17.45 33.3997 17.49C33.493 17.53 33.5697 17.59 33.6297 17.67C33.6963 17.7433 33.743 17.8267 33.7697 17.92C33.7897 18 33.8063 18.0967 33.8197 18.21C33.833 18.3167 33.8397 18.43 33.8397 18.55C33.8463 18.67 33.8497 18.79 33.8497 18.91C33.8497 19.03 33.8497 19.14 33.8497 19.24H33.9497C34.0497 19.24 34.1663 19.2367 34.2997 19.23C34.433 19.2233 34.563 19.2267 34.6897 19.24C34.823 19.2533 34.943 19.2867 35.0497 19.34C35.1563 19.3867 35.2363 19.47 35.2897 19.59ZM39.1965 22.63C39.2765 22.61 39.3565 22.5967 39.4365 22.59C39.5231 22.5833 39.5998 22.5933 39.6665 22.62C39.7398 22.6467 39.7998 22.6933 39.8465 22.76C39.8931 22.82 39.9165 22.9067 39.9165 23.02C39.9165 23.1 39.8965 23.1767 39.8565 23.25C39.8165 23.3233 39.7665 23.39 39.7065 23.45C39.6465 23.51 39.5798 23.5633 39.5065 23.61C39.4331 23.65 39.3631 23.6833 39.2965 23.71C39.1031 23.7967 38.8798 23.8633 38.6265 23.91C38.3798 23.9567 38.1231 23.9733 37.8565 23.96C37.4965 23.9467 37.1498 23.8767 36.8165 23.75C36.4898 23.6167 36.2331 23.4 36.0465 23.1C35.8731 22.8067 35.7698 22.48 35.7365 22.12C35.7031 21.76 35.7198 21.42 35.7865 21.1C35.8598 20.7133 35.9831 20.4 36.1565 20.16C36.3365 19.9133 36.5498 19.7167 36.7965 19.57C37.0965 19.3967 37.4331 19.3067 37.8065 19.3C38.1798 19.2933 38.5365 19.3667 38.8765 19.52C39.1031 19.62 39.3065 19.7567 39.4865 19.93C39.6665 20.0967 39.8031 20.3 39.8965 20.54C39.9231 20.6 39.9431 20.6733 39.9565 20.76C39.9765 20.8467 39.9898 20.94 39.9965 21.04C40.0031 21.1333 40.0031 21.2267 39.9965 21.32C39.9898 21.4133 39.9731 21.4967 39.9465 21.57C39.9065 21.69 39.8565 21.7833 39.7965 21.85C39.7365 21.9167 39.6598 21.9667 39.5665 22C39.4731 22.0333 39.3598 22.0567 39.2265 22.07C39.0998 22.0767 38.9465 22.0833 38.7665 22.09C38.6065 22.0967 38.4565 22.1 38.3165 22.1C38.1765 22.1 38.0331 22.1 37.8865 22.1C37.7398 22.0933 37.5865 22.09 37.4265 22.09C37.2731 22.0833 37.0998 22.0767 36.9065 22.07C36.8865 22.2033 36.9031 22.32 36.9565 22.42C37.0165 22.5133 37.0965 22.5933 37.1965 22.66C37.2965 22.72 37.4098 22.7667 37.5365 22.8C37.6631 22.8333 37.7865 22.8533 37.9065 22.86C38.1331 22.8733 38.3498 22.8567 38.5565 22.81C38.7631 22.7567 38.9765 22.6967 39.1965 22.63ZM38.7665 20.69C38.6398 20.5433 38.5065 20.4367 38.3665 20.37C38.2598 20.3233 38.1465 20.3033 38.0265 20.31C37.9131 20.31 37.8031 20.3267 37.6965 20.36C37.5031 20.4067 37.3398 20.5067 37.2065 20.66C37.1931 20.6733 37.1698 20.7067 37.1365 20.76C37.1031 20.8067 37.0698 20.8567 37.0365 20.91C37.0098 20.9633 36.9898 21.0133 36.9765 21.06C36.9631 21.1067 36.9698 21.13 36.9965 21.13H38.9565C38.9498 21.0367 38.9331 20.96 38.9065 20.9C38.8798 20.8333 38.8331 20.7633 38.7665 20.69ZM44.5248 20.15C44.5781 20.2433 44.6048 20.3433 44.6048 20.45C44.6115 20.5567 44.5881 20.6567 44.5348 20.75C44.4748 20.87 44.3881 20.9533 44.2748 21C44.1681 21.04 44.0481 21.0433 43.9148 21.01C43.8548 20.9967 43.8015 20.9733 43.7548 20.94C43.7081 20.9067 43.6581 20.8733 43.6048 20.84C43.5581 20.8 43.5015 20.7633 43.4348 20.73C43.3748 20.6967 43.2948 20.6733 43.1948 20.66C43.0948 20.6467 42.9848 20.6467 42.8648 20.66C42.7515 20.6733 42.6481 20.7 42.5548 20.74C42.4081 20.8133 42.2915 20.9267 42.2048 21.08C42.1181 21.2267 42.0615 21.3867 42.0348 21.56C42.0081 21.7267 42.0115 21.8967 42.0448 22.07C42.0848 22.2433 42.1581 22.39 42.2648 22.51C42.3448 22.6033 42.4481 22.68 42.5748 22.74C42.7081 22.8 42.8348 22.8367 42.9548 22.85C43.0681 22.8633 43.1815 22.8633 43.2948 22.85C43.4081 22.83 43.5181 22.8033 43.6248 22.77C43.7048 22.7367 43.7948 22.6933 43.8948 22.64C43.9948 22.58 44.0915 22.5433 44.1848 22.53C44.3048 22.53 44.3981 22.5633 44.4648 22.63C44.5315 22.69 44.5781 22.7667 44.6048 22.86C44.6315 22.9467 44.6348 23.04 44.6148 23.14C44.6015 23.24 44.5648 23.3267 44.5048 23.4C44.4248 23.5 44.3115 23.5967 44.1648 23.69C44.0181 23.7767 43.8781 23.84 43.7448 23.88C43.5848 23.9333 43.4048 23.9633 43.2048 23.97C43.0115 23.9767 42.8281 23.97 42.6548 23.95C42.5748 23.9367 42.4915 23.92 42.4048 23.9C42.3181 23.88 42.2348 23.8567 42.1548 23.83C41.8615 23.7233 41.6148 23.5733 41.4148 23.38C41.2215 23.18 41.0715 22.9567 40.9648 22.71C40.8648 22.4633 40.8081 22.2 40.7948 21.92C40.7815 21.64 40.8148 21.3633 40.8948 21.09C40.9681 20.83 41.0581 20.61 41.1648 20.43C41.2781 20.25 41.4081 20.1033 41.5548 19.99C41.7081 19.87 41.8781 19.7767 42.0648 19.71C42.2515 19.6367 42.4581 19.5733 42.6848 19.52C42.9181 19.4733 43.1648 19.4733 43.4248 19.52C43.6848 19.5667 43.9181 19.6533 44.1248 19.78C44.2848 19.8667 44.4181 19.99 44.5248 20.15ZM49.324 22.03C49.3306 22.1633 49.334 22.3033 49.334 22.45C49.334 22.59 49.3306 22.72 49.324 22.84C49.3173 23.02 49.3073 23.1867 49.294 23.34C49.2806 23.4867 49.254 23.6133 49.214 23.72C49.174 23.82 49.1106 23.8967 49.024 23.95C48.944 23.9967 48.8306 24.01 48.684 23.99C48.5306 23.97 48.4206 23.8967 48.354 23.77C48.2873 23.6433 48.2406 23.5 48.214 23.34C48.194 23.1733 48.1873 23.0067 48.194 22.84C48.2006 22.6733 48.2006 22.5433 48.194 22.45C48.1873 22.3033 48.1806 22.1367 48.174 21.95C48.174 21.7567 48.154 21.5767 48.114 21.41C48.0806 21.2367 48.0206 21.09 47.934 20.97C47.8473 20.85 47.7173 20.7867 47.544 20.78C47.324 20.7667 47.154 20.7833 47.034 20.83C46.9206 20.8767 46.8373 20.9467 46.784 21.04C46.7306 21.1267 46.6973 21.2333 46.684 21.36C46.6773 21.4867 46.664 21.6233 46.644 21.77L46.634 22.16V22.89C46.634 23.01 46.6306 23.1367 46.624 23.27C46.624 23.3967 46.604 23.5133 46.564 23.62C46.524 23.7267 46.4606 23.8167 46.374 23.89C46.294 23.9633 46.174 24 46.014 24C45.814 24 45.664 23.9367 45.564 23.81C45.4706 23.6767 45.424 23.5133 45.424 23.32V17.57C45.424 17.53 45.424 17.4933 45.424 17.46C45.4306 17.42 45.4373 17.38 45.444 17.34C45.4573 17.3 45.4673 17.2633 45.474 17.23C45.4806 17.19 45.4906 17.1533 45.504 17.12C45.524 17.0533 45.5573 17.0033 45.604 16.97C45.6373 16.9367 45.6706 16.91 45.704 16.89C45.7373 16.87 45.774 16.8567 45.814 16.85C45.8473 16.8433 45.884 16.84 45.924 16.84C45.964 16.8333 46.004 16.83 46.044 16.83C46.144 16.83 46.2406 16.86 46.334 16.92C46.374 16.9467 46.4106 16.9767 46.444 17.01C46.4773 17.0367 46.504 17.0767 46.524 17.13C46.5773 17.2567 46.604 17.3767 46.604 17.49C46.6106 17.5233 46.614 17.5733 46.614 17.64C46.6206 17.7 46.624 17.7633 46.624 17.83C46.624 17.8967 46.624 17.9633 46.624 18.03C46.6306 18.09 46.634 18.1367 46.634 18.17V18.22C46.6406 18.4333 46.644 18.65 46.644 18.87C46.644 19.09 46.644 19.3133 46.644 19.54V19.71C46.924 19.6167 47.2173 19.5733 47.524 19.58C47.8306 19.58 48.104 19.64 48.344 19.76C48.5906 19.8867 48.7773 20.03 48.904 20.19C49.0373 20.35 49.134 20.5267 49.194 20.72C49.254 20.9133 49.2873 21.12 49.294 21.34C49.3073 21.56 49.3173 21.79 49.324 22.03ZM55.551 21.67C55.5643 21.8833 55.571 22.0867 55.571 22.28C55.571 22.4667 55.5643 22.6667 55.551 22.88C55.551 22.96 55.551 23.05 55.551 23.15C55.551 23.25 55.5443 23.3467 55.531 23.44C55.5176 23.5333 55.4943 23.62 55.461 23.7C55.4276 23.78 55.3776 23.8433 55.311 23.89C55.231 23.9433 55.141 23.98 55.041 24C54.941 24.0133 54.8476 24.0067 54.761 23.98C54.6743 23.9533 54.5976 23.9033 54.531 23.83C54.471 23.7567 54.4376 23.6533 54.431 23.52C54.411 23.2133 54.401 22.9067 54.401 22.6C54.401 22.4467 54.3976 22.3 54.391 22.16C54.391 22.02 54.3943 21.8233 54.401 21.57C54.401 21.4433 54.391 21.3 54.371 21.14C54.351 20.9733 54.301 20.8567 54.221 20.79C54.161 20.7367 54.0943 20.7067 54.021 20.7C53.9476 20.6867 53.8743 20.6933 53.801 20.72C53.7343 20.7467 53.6743 20.7967 53.621 20.87C53.5676 20.9367 53.531 21.0233 53.511 21.13C53.511 21.2167 53.5076 21.3067 53.501 21.4C53.501 21.4867 53.5043 21.57 53.511 21.65C53.5176 21.8633 53.521 22.0667 53.521 22.26C53.521 22.4467 53.5176 22.6467 53.511 22.86C53.5043 22.9467 53.501 23.04 53.501 23.14C53.5076 23.24 53.5076 23.34 53.501 23.44C53.4943 23.5333 53.4743 23.62 53.441 23.7C53.4143 23.78 53.3643 23.8433 53.291 23.89C53.211 23.9433 53.1243 23.9767 53.031 23.99C52.9443 23.9967 52.861 23.9833 52.781 23.95C52.7076 23.91 52.641 23.85 52.581 23.77C52.5276 23.69 52.4976 23.5833 52.491 23.45C52.4776 23.2967 52.4676 23.1567 52.461 23.03C52.461 22.8967 52.461 22.7567 52.461 22.61C52.461 22.4567 52.4643 22.3 52.471 22.14C52.4776 21.9733 52.4743 21.8133 52.461 21.66C52.461 21.6133 52.4576 21.56 52.451 21.5C52.451 21.4333 52.4476 21.3667 52.441 21.3C52.441 21.2333 52.4343 21.17 52.421 21.11C52.4143 21.0433 52.401 20.99 52.381 20.95C52.3276 20.8567 52.231 20.7967 52.091 20.77C51.9576 20.7433 51.8443 20.7533 51.751 20.8C51.6576 20.8467 51.5876 20.9067 51.541 20.98C51.4943 21.0533 51.461 21.1333 51.441 21.22C51.421 21.3067 51.411 21.4 51.411 21.5C51.411 21.5933 51.411 21.6833 51.411 21.77C51.411 22.2033 51.411 22.58 51.411 22.9C51.4176 23.2133 51.3843 23.4667 51.311 23.66C51.2776 23.76 51.2076 23.8367 51.101 23.89C51.001 23.9433 50.891 23.97 50.771 23.97C50.6576 23.97 50.551 23.9433 50.451 23.89C50.351 23.8367 50.2843 23.7533 50.251 23.64C50.231 23.5667 50.211 23.4633 50.191 23.33C50.1776 23.19 50.1676 23.0367 50.161 22.87C50.1543 22.7033 50.151 22.5367 50.151 22.37C50.151 22.1967 50.151 22.04 50.151 21.9V20.46C50.1443 20.3067 50.141 20.14 50.141 19.96C50.141 19.78 50.1676 19.6167 50.221 19.47C50.2676 19.3433 50.341 19.2633 50.441 19.23C50.541 19.19 50.6443 19.1733 50.751 19.18C50.871 19.18 50.9643 19.2133 51.031 19.28C51.1043 19.34 51.1576 19.4167 51.191 19.51C51.2243 19.5967 51.2443 19.6967 51.251 19.81C51.2576 19.9167 51.2643 20.02 51.271 20.12C51.3443 19.9533 51.431 19.8167 51.531 19.71C51.6376 19.5967 51.7876 19.5233 51.981 19.49C52.4743 19.3967 52.8676 19.5233 53.161 19.87C53.2943 19.7367 53.4643 19.6267 53.671 19.54C53.831 19.48 53.9943 19.4533 54.161 19.46C54.3276 19.46 54.4843 19.49 54.631 19.55C54.7843 19.61 54.921 19.6967 55.041 19.81C55.1676 19.9233 55.2676 20.06 55.341 20.22C55.441 20.4333 55.4976 20.67 55.511 20.93C55.5243 21.19 55.5376 21.4367 55.551 21.67ZM57.5412 19.79C57.7412 19.69 57.9512 19.62 58.1712 19.58C58.3912 19.5333 58.6079 19.5233 58.8212 19.55C59.0412 19.57 59.2512 19.6267 59.4512 19.72C59.6512 19.8067 59.8379 19.9333 60.0112 20.1C60.1845 20.2733 60.3179 20.4633 60.4112 20.67C60.5045 20.8767 60.5712 21.1067 60.6112 21.36C60.6379 21.5333 60.6812 21.6933 60.7412 21.84C60.8012 21.9867 60.8645 22.1333 60.9312 22.28C61.0045 22.4267 61.0712 22.5733 61.1312 22.72C61.1979 22.8667 61.2512 23.02 61.2912 23.18C61.3245 23.3333 61.3112 23.4833 61.2512 23.63C61.1979 23.77 61.0845 23.8567 60.9112 23.89C60.8112 23.91 60.7145 23.9033 60.6212 23.87C60.5345 23.83 60.4545 23.7767 60.3812 23.71C60.3079 23.6367 60.2412 23.56 60.1812 23.48C60.1279 23.3933 60.0779 23.3133 60.0312 23.24C59.8779 23.44 59.7112 23.5967 59.5312 23.71C59.3512 23.8167 59.1345 23.8867 58.8812 23.92C58.6679 23.9467 58.4645 23.9533 58.2712 23.94C58.0779 23.9267 57.8712 23.89 57.6512 23.83C57.3645 23.7567 57.1279 23.63 56.9412 23.45C56.7612 23.2633 56.6212 23.05 56.5212 22.81C56.4279 22.5633 56.3779 22.3 56.3712 22.02C56.3645 21.74 56.3979 21.4633 56.4712 21.19C56.5645 20.83 56.7045 20.5367 56.8912 20.31C57.0779 20.0833 57.2945 19.91 57.5412 19.79ZM57.7912 20.96C57.6979 21.0533 57.6245 21.1633 57.5712 21.29C57.5179 21.4167 57.4845 21.55 57.4712 21.69C57.4645 21.83 57.4779 21.97 57.5112 22.11C57.5445 22.25 57.5979 22.3733 57.6712 22.48C57.7379 22.5733 57.8512 22.6533 58.0112 22.72C58.1712 22.78 58.3379 22.8167 58.5112 22.83C58.7112 22.8433 58.8845 22.79 59.0312 22.67C59.1845 22.55 59.2979 22.4 59.3712 22.22C59.4512 22.0333 59.4879 21.8367 59.4812 21.63C59.4745 21.4167 59.4179 21.2233 59.3112 21.05C59.2312 20.9233 59.1245 20.83 58.9912 20.77C58.8645 20.71 58.7279 20.68 58.5812 20.68C58.4345 20.6733 58.2879 20.6967 58.1412 20.75C58.0012 20.7967 57.8845 20.8667 57.7912 20.96ZM62.1332 20.46C62.1332 20.38 62.1332 20.29 62.1332 20.19C62.1332 20.0833 62.1365 19.9767 62.1432 19.87C62.1498 19.7567 62.1598 19.65 62.1732 19.55C62.1932 19.4433 62.2198 19.35 62.2532 19.27C62.3065 19.15 62.3898 19.07 62.5032 19.03C62.6165 18.9833 62.7398 18.9633 62.8732 18.97C63.0132 18.97 63.1232 18.9933 63.2032 19.04C63.2832 19.0867 63.3432 19.15 63.3832 19.23C63.4232 19.3033 63.4465 19.39 63.4532 19.49C63.4665 19.5833 63.4732 19.6833 63.4732 19.79C63.5332 19.6833 63.6132 19.5967 63.7132 19.53C63.8198 19.4633 63.9265 19.41 64.0332 19.37C64.1398 19.33 64.2365 19.3033 64.3232 19.29C64.4098 19.27 64.4598 19.26 64.4732 19.26C64.6398 19.2467 64.7898 19.2433 64.9232 19.25C65.0632 19.2567 65.2165 19.2867 65.3832 19.34C65.4898 19.38 65.5998 19.4367 65.7132 19.51C65.8265 19.5767 65.9265 19.6567 66.0132 19.75C66.0998 19.8433 66.1565 19.9467 66.1832 20.06C66.2165 20.1667 66.2032 20.28 66.1432 20.4C66.0498 20.5667 65.9465 20.65 65.8332 20.65C65.7198 20.6433 65.5965 20.6233 65.4632 20.59C65.3898 20.5767 65.3032 20.5467 65.2032 20.5C65.1032 20.4533 65.0165 20.4233 64.9432 20.41C64.7165 20.3767 64.5165 20.3933 64.3432 20.46C64.1698 20.5267 64.0198 20.6067 63.8932 20.7C63.7465 20.8133 63.6198 20.9433 63.5132 21.09V22.53C63.5132 22.71 63.5098 22.8967 63.5032 23.09C63.5032 23.2833 63.4765 23.46 63.4232 23.62C63.3765 23.7733 63.2932 23.9 63.1732 24C63.0598 24.0933 62.8932 24.1333 62.6732 24.12C62.5532 24.1133 62.4465 24.0567 62.3532 23.95C62.2598 23.8367 62.2032 23.7267 62.1832 23.62C62.1698 23.52 62.1598 23.4 62.1532 23.26C62.1465 23.12 62.1398 22.9733 62.1332 22.82C62.1332 22.6667 62.1332 22.5133 62.1332 22.36C62.1332 22.2 62.1332 22.0533 62.1332 21.92V20.46ZM68.996 21.7C69.1426 21.8533 69.2493 21.9667 69.316 22.04C69.3893 22.1067 69.4393 22.1567 69.466 22.19C69.4993 22.2233 69.5226 22.2433 69.536 22.25C69.5493 22.2567 69.5726 22.2767 69.606 22.31C69.6393 22.3433 69.6926 22.3967 69.766 22.47C69.8393 22.5367 69.9493 22.6467 70.096 22.8C70.216 22.92 70.3126 23.06 70.386 23.22C70.466 23.3733 70.4593 23.54 70.366 23.72C70.3126 23.8133 70.2526 23.88 70.186 23.92C70.1193 23.9533 70.046 23.9667 69.966 23.96C69.8926 23.9533 69.8126 23.93 69.726 23.89C69.646 23.85 69.566 23.8 69.486 23.74C69.3326 23.6267 69.186 23.4967 69.046 23.35C68.906 23.1967 68.7926 23.08 68.706 23C68.646 22.94 68.6093 22.9 68.596 22.88C68.5826 22.8667 68.5693 22.8567 68.556 22.85C68.5426 22.8367 68.5293 22.8233 68.516 22.81C68.4693 22.7633 68.4193 22.7167 68.366 22.67C68.3126 22.6233 68.2593 22.5733 68.206 22.52V22.91C68.206 22.9833 68.2093 23.0367 68.216 23.07C68.216 23.1367 68.2126 23.1867 68.206 23.22C68.186 23.2933 68.176 23.3633 68.176 23.43C68.1693 23.4633 68.1626 23.4967 68.156 23.53C68.1493 23.5567 68.1393 23.5867 68.126 23.62C68.1193 23.6333 68.1126 23.6433 68.106 23.65C68.106 23.6567 68.106 23.6667 68.106 23.68C68.0993 23.6933 68.0926 23.7033 68.086 23.71C68.086 23.7167 68.0826 23.7267 68.076 23.74C68.0426 23.8067 67.9893 23.87 67.916 23.93C67.7893 24.0033 67.6326 24.0233 67.446 23.99C67.346 23.97 67.2693 23.9333 67.216 23.88C67.156 23.84 67.116 23.7833 67.096 23.71C67.0826 23.6767 67.0693 23.6433 67.056 23.61C67.0493 23.57 67.0393 23.5333 67.026 23.5C67.0126 23.4667 67.006 23.4367 67.006 23.41C67.006 23.3767 67.006 23.35 67.006 23.33V17.64C67.006 17.6 67.006 17.56 67.006 17.52C67.006 17.48 67.0093 17.44 67.016 17.4C67.0226 17.36 67.0293 17.3233 67.036 17.29C67.0493 17.25 67.0626 17.2133 67.076 17.18C67.1026 17.1133 67.136 17.06 67.176 17.02C67.2093 16.9867 67.2426 16.9633 67.276 16.95C67.316 16.93 67.3526 16.9133 67.386 16.9C67.4193 16.8933 67.456 16.89 67.496 16.89C67.5426 16.8833 67.586 16.88 67.626 16.88C67.7193 16.88 67.8126 16.9067 67.906 16.96C67.9926 17.02 68.056 17.0967 68.096 17.19C68.1493 17.3167 68.176 17.44 68.176 17.56C68.1826 17.6267 68.1893 17.73 68.196 17.87C68.2026 18.0033 68.206 18.1033 68.206 18.17V18.21C68.2126 18.43 68.216 18.64 68.216 18.84C68.216 19.04 68.216 19.2567 68.216 19.49C68.2093 19.7233 68.206 19.9467 68.206 20.16C68.206 20.3667 68.206 20.5733 68.206 20.78V20.89C68.2593 20.8367 68.3126 20.7867 68.366 20.74C68.4193 20.6933 68.4693 20.6433 68.516 20.59C68.5426 20.57 68.5693 20.5467 68.596 20.52L68.706 20.41C68.7926 20.3233 68.906 20.2067 69.046 20.06C69.186 19.9067 69.3326 19.7733 69.486 19.66C69.6526 19.54 69.8126 19.4667 69.966 19.44C70.126 19.4133 70.2593 19.4933 70.366 19.68C70.4593 19.86 70.466 20.03 70.386 20.19C70.3126 20.3433 70.216 20.4867 70.096 20.62C69.9493 20.7733 69.8393 20.8867 69.766 20.96C69.6926 21.0267 69.6393 21.0767 69.606 21.11C69.5726 21.1367 69.5493 21.1533 69.536 21.16C69.5226 21.1667 69.4993 21.1867 69.466 21.22C69.4393 21.2467 69.3893 21.2967 69.316 21.37C69.2493 21.4367 69.1426 21.5467 68.996 21.7ZM74.7043 22.63C74.7843 22.61 74.8643 22.5967 74.9443 22.59C75.0309 22.5833 75.1076 22.5933 75.1743 22.62C75.2476 22.6467 75.3076 22.6933 75.3543 22.76C75.4009 22.82 75.4243 22.9067 75.4243 23.02C75.4243 23.1 75.4043 23.1767 75.3643 23.25C75.3243 23.3233 75.2743 23.39 75.2143 23.45C75.1543 23.51 75.0876 23.5633 75.0143 23.61C74.9409 23.65 74.8709 23.6833 74.8043 23.71C74.6109 23.7967 74.3876 23.8633 74.1343 23.91C73.8876 23.9567 73.6309 23.9733 73.3643 23.96C73.0043 23.9467 72.6576 23.8767 72.3243 23.75C71.9976 23.6167 71.7409 23.4 71.5543 23.1C71.3809 22.8067 71.2776 22.48 71.2443 22.12C71.2109 21.76 71.2276 21.42 71.2943 21.1C71.3676 20.7133 71.4909 20.4 71.6643 20.16C71.8443 19.9133 72.0576 19.7167 72.3043 19.57C72.6043 19.3967 72.9409 19.3067 73.3143 19.3C73.6876 19.2933 74.0443 19.3667 74.3843 19.52C74.6109 19.62 74.8143 19.7567 74.9943 19.93C75.1743 20.0967 75.3109 20.3 75.4043 20.54C75.4309 20.6 75.4509 20.6733 75.4643 20.76C75.4843 20.8467 75.4976 20.94 75.5043 21.04C75.5109 21.1333 75.5109 21.2267 75.5043 21.32C75.4976 21.4133 75.4809 21.4967 75.4543 21.57C75.4143 21.69 75.3643 21.7833 75.3043 21.85C75.2443 21.9167 75.1676 21.9667 75.0743 22C74.9809 22.0333 74.8676 22.0567 74.7343 22.07C74.6076 22.0767 74.4543 22.0833 74.2743 22.09C74.1143 22.0967 73.9643 22.1 73.8243 22.1C73.6843 22.1 73.5409 22.1 73.3943 22.1C73.2476 22.0933 73.0943 22.09 72.9343 22.09C72.7809 22.0833 72.6076 22.0767 72.4143 22.07C72.3943 22.2033 72.4109 22.32 72.4643 22.42C72.5243 22.5133 72.6043 22.5933 72.7043 22.66C72.8043 22.72 72.9176 22.7667 73.0443 22.8C73.1709 22.8333 73.2943 22.8533 73.4143 22.86C73.6409 22.8733 73.8576 22.8567 74.0643 22.81C74.2709 22.7567 74.4843 22.6967 74.7043 22.63ZM74.2743 20.69C74.1476 20.5433 74.0143 20.4367 73.8743 20.37C73.7676 20.3233 73.6543 20.3033 73.5343 20.31C73.4209 20.31 73.3109 20.3267 73.2043 20.36C73.0109 20.4067 72.8476 20.5067 72.7143 20.66C72.7009 20.6733 72.6776 20.7067 72.6443 20.76C72.6109 20.8067 72.5776 20.8567 72.5443 20.91C72.5176 20.9633 72.4976 21.0133 72.4843 21.06C72.4709 21.1067 72.4776 21.13 72.5043 21.13H74.4643C74.4576 21.0367 74.4409 20.96 74.4143 20.9C74.3876 20.8333 74.3409 20.7633 74.2743 20.69ZM80.1822 19.59C80.2356 19.7167 80.2389 19.8567 80.1922 20.01C80.1522 20.1633 80.0756 20.2633 79.9622 20.31C79.9022 20.3367 79.8222 20.36 79.7222 20.38C79.6222 20.3933 79.5122 20.4067 79.3922 20.42C79.2789 20.4333 79.1656 20.4433 79.0522 20.45C78.9389 20.4567 78.8422 20.46 78.7622 20.46C78.7689 20.66 78.7756 20.8667 78.7822 21.08C78.7889 21.2867 78.7956 21.49 78.8022 21.69C78.8089 21.89 78.8122 22.0833 78.8122 22.27C78.8122 22.45 78.8089 22.6133 78.8022 22.76C78.8022 22.86 78.8022 22.9767 78.8022 23.11C78.8022 23.2367 78.7922 23.36 78.7722 23.48C78.7589 23.6 78.7356 23.7067 78.7022 23.8C78.6689 23.8867 78.6189 23.9433 78.5522 23.97C78.3456 24.0567 78.1556 24.08 77.9822 24.04C77.8156 24.0067 77.6956 23.9367 77.6222 23.83C77.5689 23.7433 77.5289 23.6433 77.5022 23.53C77.4756 23.41 77.4556 23.29 77.4422 23.17C77.4356 23.0433 77.4322 22.9233 77.4322 22.81C77.4389 22.69 77.4422 22.5867 77.4422 22.5C77.4489 22.22 77.4522 21.9033 77.4522 21.55C77.4589 21.19 77.4622 20.83 77.4622 20.47H77.3122C77.2322 20.47 77.1289 20.47 77.0022 20.47C76.8822 20.4633 76.7589 20.4533 76.6322 20.44C76.5122 20.42 76.3989 20.3967 76.2922 20.37C76.1856 20.3367 76.1089 20.29 76.0622 20.23C75.9889 20.1433 75.9422 20.05 75.9222 19.95C75.9089 19.85 75.9156 19.7567 75.9422 19.67C75.9756 19.5767 76.0256 19.4967 76.0922 19.43C76.1589 19.3567 76.2356 19.31 76.3222 19.29C76.4422 19.2567 76.6122 19.24 76.8322 19.24C77.0522 19.2333 77.2589 19.2333 77.4522 19.24C77.4456 19.1733 77.4422 19.11 77.4422 19.05C77.4422 18.9833 77.4389 18.92 77.4322 18.86C77.4256 18.78 77.4222 18.68 77.4222 18.56C77.4222 18.4333 77.4289 18.31 77.4422 18.19C77.4622 18.0633 77.4922 17.9467 77.5322 17.84C77.5722 17.7267 77.6289 17.64 77.7022 17.58C77.8022 17.5 77.9022 17.4567 78.0022 17.45C78.1089 17.4367 78.2056 17.45 78.2922 17.49C78.3856 17.53 78.4622 17.59 78.5222 17.67C78.5889 17.7433 78.6356 17.8267 78.6622 17.92C78.6822 18 78.6989 18.0967 78.7122 18.21C78.7256 18.3167 78.7322 18.43 78.7322 18.55C78.7389 18.67 78.7422 18.79 78.7422 18.91C78.7422 19.03 78.7422 19.14 78.7422 19.24H78.8422C78.9422 19.24 79.0589 19.2367 79.1922 19.23C79.3256 19.2233 79.4556 19.2267 79.5822 19.24C79.7156 19.2533 79.8356 19.2867 79.9422 19.34C80.0489 19.3867 80.1289 19.47 80.1822 19.59Z" fill="#178ADB"/>
<rect x="0.5" y="0.5" width="88" height="39" rx="19.5" stroke="#D0F0C0"/>
</svg>
